<?xml version="1.0" encoding="iso-8859-1"?>
<!-- Uploaded to: SVG Repo, www.svgrepo.com, Generator: SVG Repo Mixer Tools -->
<svg version="1.1" id="Layer_1" xmlns="http://www.w3.org/2000/svg" xmlns:xlink="http://www.w3.org/1999/xlink" 
	 viewBox="0 0 512 512" xml:space="preserve">
<rect x="238.771" y="132.975" style="fill:#81E26F;" width="34.39" height="160.487"/>
<rect x="254.82" y="132.975" style="fill:#60DC4D;" width="18.399" height="160.487"/>
<path style="fill:#FFB64C;" d="M255.972,1.146c-41.086,0-74.512,33.426-74.512,74.512s33.426,74.512,74.512,74.512
	s74.512-33.426,74.512-74.512S297.058,1.146,255.972,1.146z"/>
<path style="fill:#FF9800;" d="M256.028,1.146c-0.404,0-0.801,0.024-1.202,0.031V150.14c0.402,0.007,0.8,0.031,1.202,0.031
	c41.086,0,74.512-33.426,74.512-74.512S297.114,1.146,256.028,1.146z"/>
<path style="fill:#9F7953;" d="M341.083,336.741l-5.037-5.037H175.898l-5.037,5.037c-46.93,46.93-46.93,123.292,0,170.222
	l5.037,5.037h160.149l5.037-5.037C388.014,460.033,388.014,383.671,341.083,336.741z"/>
<path style="fill:#3ACC8F;" d="M255.972,182.085l-120.365-66.869v29.222c0,31.966,12.572,62.142,35.398,84.969
	c22.826,22.826,53.002,35.397,84.968,35.397s62.142-12.571,84.968-35.397c22.826-22.827,35.398-53.002,35.398-84.969v-29.224
	L255.972,182.085z"/>
<path style="fill:#00C37A;" d="M256.028,182.085l-1.202-0.668v83.372c0.401,0.003,0.801,0.015,1.202,0.015
	c31.966,0,62.142-12.571,84.968-35.397c22.826-22.827,35.398-53.002,35.398-84.969v-29.224L256.028,182.085z"/>
<path style="fill:#896746;" d="M341.14,336.741l-5.037-5.037h-81.278V512h81.278l5.037-5.037
	C388.07,460.033,388.07,383.671,341.14,336.741z"/>
<rect x="166.552" y="280.853" style="fill:#C8AC90;" width="178.829" height="85.975"/>
<rect x="254.82" y="280.853" style="fill:#BC9A7B;" width="90.618" height="85.975"/>
<rect x="239.872" style="fill:#FF3D63;" width="34.39" height="66.488"/>
<rect x="255.92" style="fill:#FF0536;" width="18.399" height="66.488"/>
</svg>